# xmcd CD database file
#
# Track frame offsets:
#	182
#	69465
#	153150
#	215647
#	301252
#
# Disc length: 4485 seconds
#
# Revision: 0
# Processed by: cddbd v1.5.1PL0 Copyright (c) Steve Scherf et al.
# Submitted via: CDex 1.51
#
DISCID=3c118305
DTITLE=Ali Jackson - groove@jazz en tête
DYEAR=1997
DGENRE=Jazz
TTITLE0=First Movement
TTITLE1=Second Movement - Snoqualmie Suite
TTITLE2=Third Movement - Swingwenski
TTITLE3=Fourth Movement - Wise One Suite
TTITLE4=Groove for Clermont-Ferrand
EXTD=YEAR: 1997
EXTT0=
EXTT1=
EXTT2=
EXTT3=
EXTT4=
PLAYORDER=
